<svg xmlns="http://www.w3.org/2000/svg" viewBox="0 0 900 455" fill="#111111" role="img" aria-labelledby="title">
  <title id="title">Somos Gente Digital</title>
  <g transform="translate(0,455) scale(0.100000,-0.100000)">
    <path d="M2180 4404 c-360 -42 -588 -104 -847 -231 -549 -269 -954 -769 -1108 -1368 -18 -72 -41 -182 -50 -245 -28 -206 -18 -538 23 -730 l8 -35 1923 -3 1923 -2 -7 -48 c-71 -493 -426 -922 -929 -1122 -171 -67 -348 -100 -586 -107 -351 -11 -637 48 -935 192 -274 132 -519 338 -689 579 -47 66 -73 95 -83 92 -52 -20 -260 -79 -329 -93 -46 -10 -84 -20 -84 -24 0 -10 97 -166 140 -224 466 -631 1140 -939 1995 -912 496 16 875 138 1214 391 360 268 599 661 696 1142 15 71 28 130 29 131 2 2 15 -43 30 -99 169 -648 712 -1225 1356 -1442 288 -97 504 -130 855 -131 343 0 526 26 785 112 765 253 1234 917 1277 1807 l6 136 -1961 0 -1961 0 -7 36 c-7 39 1 177 17 294 53 378 265 768 555 1022 211 185 515 345 779 412 145 36 215 47 355 55 561 34 1131 -187 1605 -621 l60 -56 158 151 158 150 -48 44 c-98 88 -295 244 -396 312 -331 222 -687 356 -1097 412 -127 18 -536 18 -660 1 -417 -59 -771 -200 -1078 -429 -97 -73 -276 -245 -355 -343 -301 -373 -477 -854 -477 -1307 l0 -123 -1927 2 -1928 3 -3 55 c-5 81 15 277 39 388 74 341 286 695 550 918 377 321 887 491 1359 454 490 -37 961 -252 1365 -622 l60 -55 157 150 158 151 -47 43 c-247 224 -540 422 -783 528 -328 143 -616 204 -995 210 -126 2 -246 1 -265 -1z m6149 -2630 c10 -9 -24 -158 -59 -265 -46 -140 -87 -224 -171 -350 -78 -116 -241 -280 -364 -367 -182 -129 -419 -226 -650 -268 -122 -22 -414 -30 -556 -15 -320 33 -618 141 -890 322 -150 101 -349 293 -452 439 -73 104 -191 333 -232 448 l-25 74 1697 -8 c934 -3 1700 -8 1702 -10z M1738 3303 c12 -2 30 -2 40 0 9 3 -1 5 -23 4 -22 0 -30 -2 -17 -4z M3088 3303 c12 -2 30 -2 40 0 9 3 -1 5 -23 4 -22 0 -30 -2 -17 -4z M6048 3303 c12 -2 30 -2 40 0 9 3 -1 5 -23 4 -22 0 -30 -2 -17 -4z M7398 3303 c12 -2 30 -2 40 0 9 3 -1 5 -23 4 -22 0 -30 -2 -17 -4z M1646 3284 c-115 -42 -190 -158 -188 -290 1 -86 32 -152 98 -213 85 -78 187 -100 304 -65 41 12 67 29 110 72 72 73 95 132 88 236 -9 136 -96 242 -223 271 l-30 7 36 -25 c149 -105 20 -337 -144 -258 -105 51 -116 193 -18 258 38 26 25 29 -33 7z M2983 3281 c-61 -28 -127 -94 -154 -154 -31 -69 -32 -180 -1 -249 70 -157 270 -225 421 -142 174 94 214 319 84 465 -47 51 -128 99 -168 99 l-20 -1 20 -11 c76 -42 107 -113 80 -184 -33 -87 -111 -122 -193 -88 -115 48 -126 199 -20 264 44 27 10 27 -49 1z M5953 3284 c-123 -44 -208 -200 -183 -334 14 -72 42 -121 100 -173 83 -74 185 -95 300 -61 41 12 67 29 110 72 72 73 95 132 88 236 -9 136 -96 242 -223 271 l-30 7 36 -25 c68 -48 87 -144 41 -206 -50 -67 -116 -85 -185 -52 -108 52 -116 199 -15 261 38 23 21 25 -39 4z M7293 3281 c-61 -28 -127 -94 -154 -154 -32 -70 -32 -181 -2 -249 103 -229 439 -237 548 -13 57 116 40 243 -44 337 -45 50 -126 98 -166 98 l-20 -1 20 -11 c76 -42 107 -113 80 -184 -33 -87 -111 -122 -193 -88 -115 48 -126 199 -20 264 44 27 10 27 -49 1z"/>
  </g>
</svg>
